#!OML:ASF F:\VICON\USERDATA\INSTALL\rory3\rory3.ASF
:FULLY-SPECIFIED
:DEGREES
177
root 0.8473175870047667 17.752164130756302 40.42573136383834 1.7897559935932692 0.15270682100499466 0.39512077919656274
lfemur -18.638023289573724 3.7727933379606235 -19.24076706498041
ltibia 57.44540514411731
lfoot 5.372430902751353 -9.928041406107157
ltoes -7.068589279064835
rfemur -14.542727248591234 5.928818728953491 29.12290615792414
rtibia 51.41481251915842
rfoot -4.711735126038758 -6.13712029814563
rtoes 2.8354484864256646
lowerback 12.544168820196612 -0.07528778099570754 0.14717531465040012
upperback -0.5520974205431164 2.0246258055275694 1.8821540053962846
thorax -8.425165161307403 0.8627926785727186 0.08141924072205337
lowerneck -19.590882680828877 -3.859239688813469 -1.8221454254738947
upperneck 9.887267929769369 -5.583381098989125 3.0190014033482018
head 6.407553938054395 -2.3739113918610406 0.7876775606332197
lclavicle 4.287488207731266e-15 5.75886165290891e-17
lhumerus -48.23273320777436 -11.866297228506237 96.82895585403874
lradius 109.18601263815673
lwrist 28.65838923640875
lhand -29.46654061089108 3.0883853245582027
lfingers 7.125019999999998
lthumb -2.8830298644693957 32.77169864312256
rclavicle 4.28752700038245e-15 5.761646213958064e-17
rhumerus -45.98491964418994 13.56547584881976 -98.85689219093666
rradius 105.69066124127174
rwrist -9.71188117780447
rhand -20.425885672678127 36.286978115192824
rfingers 7.125019999999998
rthumb 6.123182928873114 6.238032150006808
178
root 0.8948034344167908 17.83685992603672 43.211795508522705 1.9930854698260143 0.6361770256228991 0.6260471786498476
lfemur -22.22663727048953 3.1725399273875654 -20.11960415920217
ltibia 56.754697678771194
lfoot 4.116921597147725 -11.235121541256326
ltoes -6.756917718462392
rfemur -12.824985647209912 5.899620449403647 29.84431619246935
rtibia 52.01121620215899
rfoot -4.560926475906361 -6.028395304965616
rtoes 2.8219453869542725
lowerback 12.495177222343429 -0.06893881459279116 0.06650725612389508
upperback -0.5153043495120434 2.205419211663116 1.8864591875323042
thorax -8.416469350258923 0.9540322838991535 0.03537134788179064
lowerneck -19.727564348789098 -3.9257907700990415 -1.8440211861845581
upperneck 9.862337353082175 -5.636342485372975 3.003138517807309
head 6.3905184086288624 -2.3831388940178506 0.7961392515591106
lclavicle 4.287488207731266e-15 5.75886165290891e-17
lhumerus -47.93152621721622 -11.96292039106102 96.93472424081554
lradius 109.37069704524123
lwrist 28.651367430589726
lhand -29.468661936442665 2.9261979734062646
lfingers 7.125019999999998
lthumb -3.0218386905219856 32.69771001617259
rclavicle 4.28752700038245e-15 5.761646213958064e-17
rhumerus -45.35533747847109 13.745526013539113 -98.80406213341527
rradius 105.74812643272497
rwrist -9.690067358938219
rhand -20.38525253596406 36.33810182173857
rfingers 7.125019999999998
rthumb 6.139045578641381 6.32157354478201
179
root 0.8495317970644676 17.779239818115954 39.54597791395316 1.8047273929065497 -0.08313996133623358 0.1865900488861767
lfemur -21.13006284690025 3.4824884367127877 -19.58864758711202
ltibia 56.23372267429486
lfoot 3.208737385839398 -11.430149002812247
ltoes -6.412434374097502
rfemur -14.81536190938827 5.573829138997664 29.145283280069883
rtibia 52.76860796336603
rfoot -4.513090156548801 -5.75519666544118
rtoes 2.484213705957373
lowerback 12.55492753144354 0.019760689868395076 0.19066351931344871
upperback -0.5564112509203818 2.1499395852877687 1.7842987178084533
thorax -8.398264700564408 1.0655373006321633 0.12946598653816366
lowerneck -19.61877829439897 -3.8675633133475777 -1.8055857887906026
upperneck 9.891372116978694 -5.636551517574555 3.017347826902929
head 6.394978292882467 -2.3825590744541754 0.8034185342601814
lclavicle 4.287488207731266e-15 5.75886165290891e-17
lhumerus -49.054041011177596 -12.538786411313096 96.79034985643563
lradius 109.10336791585348
lwrist 28.641064578785073
lhand -29.322732872658023 2.971436794810585
lfingers 7.125019999999998
lthumb -3.0330285034796867 32.757730214550065
rclavicle 4.28752700038245e-15 5.761646213958064e-17
rhumerus -44.68697893998909 13.920883928396963 -98.7419551355437
rradius 105.80269945629779
rwrist -9.791295645268079
rhand -20.438672181983613 36.30185620723787
rfingers 7.125019999999998
rthumb 6.138928395930971 6.372703559305381
180
root 0.8981788518112832 17.87058395136525 42.200990999801 2.0683770620769444 0.35485351993852465 0.33382728628829517
lfemur -23.81557718571162 2.8516322512210825 -20.23028102414571
ltibia 55.31967347585394
lfoot 2.0665024596989574 -11.202252922189594
ltoes -6.132169281102604
rfemur -13.109680766229676 5.672387457587405 29.133868011943584
rtibia 53.51787221830424
rfoot -4.726466722469878 -5.611702217350812
rtoes 2.7585195268147
lowerback 12.556858106053117 0.05680784818934925 0.2261915894390144
upperback -0.5975346434306605 2.182156469706303 1.7098599962730063
thorax -8.4503502401167 1.0710414846069156 -0.06169750638155075
lowerneck -19.700260552024048 -3.9663220355585285 -1.8404751167198645
upperneck 10.047559192915017 -5.561528613226916 3.106771557178544
head 6.397160036654645 -2.388698748202563 0.7993871389185666
lclavicle 4.287488207731266e-15 5.75886165290891e-17
lhumerus -48.60279692453626 -12.549058986754629 96.91686060543927
lradius 109.18429694750643
lwrist 28.469062904754605
lhand -29.39602336499731 2.8727438529032234
lfingers 7.125019999999998
lthumb -3.166598573461404 32.697510614758755
rclavicle 4.28752700038245e-15 5.761646213958064e-17
rhumerus -44.29107879113346 13.981223881188527 -98.72608207156993
rradius 105.80239784988464
rwrist -9.692054527923418
rhand -20.401736469341635 36.35778476921462
rfingers 7.125019999999998
rthumb 6.038093291603815 6.307036240688248
